<?xml version="1.0" encoding="UTF-8" standalone="no"?>
<svg
   xmlns:dc="http://purl.org/dc/elements/1.1/"
   xmlns:cc="http://creativecommons.org/ns#"
   xmlns:rdf="http://www.w3.org/1999/02/22-rdf-syntax-ns#"
   xmlns:svg="http://www.w3.org/2000/svg"
   xmlns="http://www.w3.org/2000/svg"
   xmlns:sodipodi="http://sodipodi.sourceforge.net/DTD/sodipodi-0.dtd"
   xmlns:inkscape="http://www.inkscape.org/namespaces/inkscape"
   version="1.1"
   id="svg2"
   xml:space="preserve"
   width="666.66669"
   height="666.66669"
   viewBox="0 0 666.66669 666.66669"
   sodipodi:docname="2174811.ai"><metadata
     id="metadata8"><rdf:RDF><cc:Work
         rdf:about=""><dc:format>image/svg+xml</dc:format><dc:type
           rdf:resource="http://purl.org/dc/dcmitype/StillImage" /></cc:Work></rdf:RDF></metadata><defs
     id="defs6"><linearGradient
       x1="0"
       y1="0"
       x2="1"
       y2="0"
       gradientUnits="userSpaceOnUse"
       gradientTransform="matrix(0,-254.8988,-254.8988,0,250,380.07092)"
       spreadMethod="pad"
       id="linearGradient30"><stop
         style="stop-opacity:1;stop-color:#e4f3f7"
         offset="0"
         id="stop26" /><stop
         style="stop-opacity:1;stop-color:#ffffff"
         offset="1"
         id="stop28" /></linearGradient><clipPath
       clipPathUnits="userSpaceOnUse"
       id="clipPath40"><path
         d="M 0,500 H 500 V 0 H 0 Z"
         id="path38" /></clipPath><clipPath
       clipPathUnits="userSpaceOnUse"
       id="clipPath284"><path
         d="M 0,500 H 500 V 0 H 0 Z"
         id="path282" /></clipPath></defs><sodipodi:namedview
     pagecolor="#ffffff"
     bordercolor="#666666"
     borderopacity="1"
     objecttolerance="10"
     gridtolerance="10"
     guidetolerance="10"
     inkscape:pageopacity="0"
     inkscape:pageshadow="2"
     inkscape:window-width="640"
     inkscape:window-height="480"
     id="namedview4" /><g
     id="g10"
     inkscape:groupmode="layer"
     inkscape:label="2174811"
     transform="matrix(1.3333333,0,0,-1.3333333,0,666.66667)"><path
       d="M 0,0 H 500 V 500 H 0 Z"
       style="fill:#ffffff;fill-opacity:1;fill-rule:nonzero;stroke:none"
       id="path12" /><g
       id="g14"><g
         id="g16"><g
           id="g22"><g
             id="g24"><path
               d="M 74.834,353.771 C 77.225,284.369 43.754,270.489 35.785,214.452 v 0 c -7.969,-56.036 47.342,-95.711 47.342,-95.711 v 0 h 359.88 c 0,0 4.781,83.807 17.531,113.845 v 0 c 12.751,30.038 0,118.263 -62.158,140.91 v 0 c -37.472,13.652 -65.387,4.738 -89.157,-4.177 v 0 c -15.66,-5.873 -29.521,-11.745 -43.13,-11.165 v 0 c -34.267,1.462 -27.095,70.863 -81.918,89.127 v 0 c -8.636,2.877 -17.316,4.25 -25.815,4.249 v 0 C 112.903,451.525 72.82,412.241 74.834,353.771"
               style="fill:url(#linearGradient30);stroke:none"
               id="path32" /></g></g></g></g><g
       id="g34"><g
         id="g36"
         clip-path="url(#clipPath40)"><g
           id="g42"
           transform="translate(392.457,127.0332)"><path
             d="m 0,0 c 0,-4.58 -62.309,-8.293 -139.17,-8.293 -76.861,0 -139.169,3.713 -139.169,8.293 0,4.579 62.308,8.292 139.169,8.292 C -62.309,8.292 0,4.579 0,0"
             style="fill:#f2ecfd;fill-opacity:1;fill-rule:nonzero;stroke:none"
             id="path44" /></g><g
           id="g46"
           transform="translate(138.9565,227.4062)"><path
             d="M 0,0 8.401,-99.354 H 65.75 V 0 Z"
             style="fill:#40bcf3;fill-opacity:1;fill-rule:nonzero;stroke:none"
             id="path48" /></g><g
           id="g50"
           transform="translate(214.9336,220.7207)"><path
             d="m 0,0 v -85.097 h 11.71 c 0,0 7.808,-7.026 11.321,-7.807 3.513,-0.781 107.737,0 107.737,0 0,0 16.003,5.075 14.833,18.346 0.061,6.246 -4.684,11.711 -4.684,11.711 0,0 12.491,1.951 13.271,14.833 0,6.636 -5.464,12.101 -5.464,12.101 0,0 13.271,7.417 13.271,16.785 0,9.369 -5.465,12.882 -5.465,12.882 0,0 14.053,6.636 14.053,18.347 0,11.71 -12.101,11.32 -12.101,11.32 H 79.241 l 6.051,32.399 c 0,0 4.488,12.491 0,24.982 -4.489,12.491 -8.783,26.934 -16.98,28.496 C 60.114,110.859 55.82,108.907 55.43,97.587 55.039,86.267 55.039,69.092 55.039,69.092 55.039,69.092 23.031,4.294 0,0"
             style="fill:#40bcf3;fill-opacity:1;fill-rule:nonzero;stroke:none"
             id="path52" /></g><g
           id="g54"
           transform="translate(177.5703,313.5225)"><path
             d="m 0,0 c 0,0 -5.645,4.382 -15.658,-1.151 -8.75,-4.836 -7.828,-17.27 -6.447,-26.711 1.382,-9.44 -12.089,-10.016 -8.52,-19.687 3.569,-9.671 18.412,-17.269 35.744,-10.937 17.332,6.332 16.296,16.924 11.114,22.105 C 11.053,-31.2 9.095,-25.354 9.556,-14.75 10.017,-4.145 0,0 0,0"
             style="fill:#002db5;fill-opacity:1;fill-rule:nonzero;stroke:none"
             id="path56" /></g><g
           id="g58"
           transform="translate(160.5225,300.8081)"><path
             d="m 0,0 c 0,0 -0.692,-8.488 2.885,-14.018 3.578,-5.529 13.878,-5.637 17.673,3.687 1.671,7.042 1.606,9.236 1.606,9.236 0,0 -5.422,1.23 -6.872,7.668 0,0 -4.099,-8.608 -15.292,-6.573"
             style="fill:#f9d4d1;fill-opacity:1;fill-rule:nonzero;stroke:none"
             id="path60" /></g><g
           id="g62"
           transform="translate(160.5215,297.7407)"><path
             d="M 0,0 C 0,0 -0.583,1.084 -1.884,1.03 -3.185,0.976 -4.721,-2.757 0.682,-4.929 Z"
             style="fill:#f9d4d1;fill-opacity:1;fill-rule:nonzero;stroke:none"
             id="path64" /></g><g
           id="g66"
           transform="translate(182.3018,297.7407)"><path
             d="M 0,0 C 0,0 0.583,1.084 1.884,1.03 3.186,0.976 4.721,-2.757 -0.682,-4.929 Z"
             style="fill:#f9d4d1;fill-opacity:1;fill-rule:nonzero;stroke:none"
             id="path68" /></g><g
           id="g70"
           transform="translate(167.6177,279.4727)"><path
             d="m 0,0 c 0,0 -4.323,0.086 -9.159,-0.95 -4.836,-1.036 -10.985,-13.779 -10.985,-13.779 0,0 1.832,-3.836 8.394,-4.699 l 1.524,2.59 v -13.815 c 0,0 15.401,-8.981 30.253,0 v 15.024 l 1.794,-4.038 c 0,0 5.2,-0.063 7.533,3.404 0,0 -3.916,10.593 -8.579,13.529 C 18.583,-1.354 13.119,0.347 8.197,0.002 3.275,-0.344 0,0 0,0"
             style="fill:#ff8da4;fill-opacity:1;fill-rule:nonzero;stroke:none"
             id="path72" /></g><g
           id="g74"
           transform="translate(167.6177,283.5474)"><path
             d="m 0,0 v -4.075 c 0,0 0.556,-3.367 3.988,-3.713 3.432,-0.345 4.209,3.282 4.209,3.282 V 0.715 C 8.197,0.715 4.396,-1.507 0,0"
             style="fill:#f9d4d1;fill-opacity:1;fill-rule:nonzero;stroke:none"
             id="path76" /></g><g
           id="g78"
           transform="translate(148.6714,263.2095)"><path
             d="m 0,0 -4.258,-11.857 h 8.404 l 3.051,8.692 c 0,0 -4.904,0.833 -7.197,3.165"
             style="fill:#f9d4d1;fill-opacity:1;fill-rule:nonzero;stroke:none"
             id="path80" /></g><path
           d="m 189.774,259.987 h -35.115 v -19.342 h 35.115 z"
           style="fill:#222222;fill-opacity:1;fill-rule:nonzero;stroke:none"
           id="path82" /><g
           id="g84"
           transform="translate(196.9712,263.2095)"><path
             d="m 0,0 4.258,-11.857 h -8.404 l -3.051,8.692 c 0,0 5.471,0.401 7.197,3.165"
             style="fill:#f9d4d1;fill-opacity:1;fill-rule:nonzero;stroke:none"
             id="path86" /></g><g
           id="g88"
           transform="translate(186.5508,232.5859)"><path
             d="m 0,0 c 0,0 -15.888,11.628 -25.444,15.313 -9.556,3.683 -14.852,5.871 -18.651,3.453 -3.8,-2.417 -3.684,-11.744 12.664,-17.615 16.349,-5.872 29.646,-5.756 29.646,-5.756 z"
             style="fill:#2467a1;fill-opacity:1;fill-rule:nonzero;stroke:none"
             id="path90" /></g><g
           id="g92"
           transform="translate(202.4385,232.2979)"><path
             d="m 0,0 -15.888,0.288 -1.784,-4.605 c 0,0 11.282,-0.806 14.736,0.576 C 0.518,-2.36 0,0 0,0"
             style="fill:#222222;fill-opacity:1;fill-rule:nonzero;stroke:none"
             id="path94" /></g><g
           id="g96"
           transform="translate(157.1118,232.5859)"><path
             d="M 0,0 C 0,0 15.888,11.628 25.444,15.313 35,18.996 40.296,21.184 44.095,18.766 47.895,16.349 47.779,7.022 31.431,1.151 15.082,-4.721 1.785,-4.605 1.785,-4.605 Z"
             style="fill:#2467a1;fill-opacity:1;fill-rule:nonzero;stroke:none"
             id="path98" /></g><g
           id="g100"
           transform="translate(141.2241,232.2979)"><path
             d="m 0,0 15.888,0.288 1.784,-4.605 c 0,0 -11.282,-0.806 -14.736,0.576 C -0.518,-2.36 0,0 0,0"
             style="fill:#222222;fill-opacity:1;fill-rule:nonzero;stroke:none"
             id="path102" /></g><g
           id="g104"
           transform="translate(327.2812,291.708)"><path
             d="m 0,0 1.278,3.47 c 0,0 14.063,-5.479 13.698,12.967 0,0 -2.922,-2.557 -11.506,-1.096 0,0 -1.096,3.288 -3.47,3.836 -2.375,0.548 -4.566,-3.653 -1.645,-7.854 L -4.749,3.47 c 0,0 3.471,-1.279 4.749,-3.47"
             style="fill:#f9d4d1;fill-opacity:1;fill-rule:nonzero;stroke:none"
             id="path106" /></g><g
           id="g108"
           transform="translate(309.5654,257.3721)"><path
             d="m 0,0 c 0,0 -0.913,23.56 5.113,30.683 6.028,7.123 7.854,7.123 7.854,7.123 0,0 14.435,-2.922 9.866,-35.432 0,0 -6.944,-4.749 -22.833,-2.374"
             style="fill:#ff8da4;fill-opacity:1;fill-rule:nonzero;stroke:none"
             id="path110" /></g><g
           id="g112"
           transform="translate(324.7236,287.2988)"><path
             d="m 0,0 c 0,0 -5.113,2.375 -6.939,-2.009 -1.828,-4.383 5.295,-20.273 8.218,-22.282 2.922,-2.009 16.262,-4.383 16.262,-4.383 h 6.02 v 3.287 L 7.675,-18.629 C 7.675,-18.629 5.114,-7.854 0,0"
             style="fill:#ff7f99;fill-opacity:1;fill-rule:nonzero;stroke:none"
             id="path114" /></g><g
           id="g116"
           transform="translate(309.5654,257.3721)"><path
             d="m 0,0 c 0,0 -1.278,-9.314 3.835,-12.054 5.114,-2.74 30.866,-0.914 30.866,-0.914 L 27.578,-42.92 h 4.2 L 50.042,-0.665 22.833,2.374 C 22.833,2.374 15.341,-2.375 0,0"
             style="fill:#2467a1;fill-opacity:1;fill-rule:nonzero;stroke:none"
             id="path118" /></g><g
           id="g120"
           transform="translate(365.2695,214.4521)"><path
             d="m 0,0 -9.587,33.175 3.925,9.08 H 0 L 4.748,0 Z"
             style="fill:#135d8c;fill-opacity:1;fill-rule:nonzero;stroke:none"
             id="path122" /></g><g
           id="g124"
           transform="translate(337.1436,214.4521)"><path
             d="M 0,0 -1.278,-4.383 9.132,-9.862 4.2,0 Z"
             style="fill:#222222;fill-opacity:1;fill-rule:nonzero;stroke:none"
             id="path126" /></g><g
           id="g128"
           transform="translate(365.2334,214.4521)"><path
             d="M 0,0 -1.279,-4.383 9.132,-9.862 4.2,0 Z"
             style="fill:#222222;fill-opacity:1;fill-rule:nonzero;stroke:none"
             id="path130" /></g><g
           id="g132"
           transform="translate(348.2842,261.5015)"><path
             d="M 0,0 C 0,0 2.169,0.479 3.949,0.89 5.73,1.301 11.624,-2.316 8.676,-2.694 7.785,-2.808 0,-2.876 0,-2.876 Z"
             style="fill:#f9d4d1;fill-opacity:1;fill-rule:nonzero;stroke:none"
             id="path134" /></g><g
           id="g136"
           transform="translate(346.6406,312.5283)"><path
             d="m 0,0 c 0,0 2.248,1.652 1.644,5.114 -0.502,2.876 -3.47,3.013 -3.47,3.013 0,0 -0.296,4.595 -4.567,5.023 -3.184,0.32 -4.565,-1.552 -4.565,-1.552 0,0 -3.014,3.561 -7.306,2.83 -4.292,-0.73 -4.84,-3.652 -4.84,-3.652 0,0 -5.387,0.822 -7.123,-3.014 -1.735,-3.835 0,-7.032 0,-7.032 0,0 -2.008,-2.647 -1.643,-5.57 0.365,-2.922 3.47,-5.114 3.47,-5.114 0,0 0.401,-4.932 5.36,-4.694 l 2.037,5.151 c -2.923,4.201 -0.731,8.401 1.644,7.853 2.374,-0.547 3.469,-3.835 3.469,-3.835 8.584,-1.461 11.506,1.096 11.506,1.096 0.022,-1.089 -0.011,-2.088 -0.084,-3.016 0.001,0 0.004,0.002 0.004,0.002 0,0 3.459,-0.73 4.829,2.557 C 1.735,-1.552 0,0 0,0"
             style="fill:#002db5;fill-opacity:1;fill-rule:nonzero;stroke:none"
             id="path138" /></g><path
           d="m 377.78,258.625 h -41.094 v -1.918 h 41.094 z"
           style="fill:#222222;fill-opacity:1;fill-rule:nonzero;stroke:none"
           id="path140" /><g
           id="g142"
           transform="translate(355.6826,258.4424)"><path
             d="M 0,0 3.925,21.277 H 25.567 L 22.098,0.183 Z"
             style="fill:#222222;fill-opacity:1;fill-rule:nonzero;stroke:none"
             id="path144" /></g><g
           id="g146"
           transform="translate(239.9082,83.542)"><path
             d="m 0,0 c 0,-3.066 -33.297,-5.553 -74.372,-5.553 -41.074,0 -74.371,2.487 -74.371,5.553 0,3.067 33.297,5.554 74.371,5.554 C -33.297,5.554 0,3.067 0,0"
             style="fill:#f2ecfd;fill-opacity:1;fill-rule:nonzero;stroke:none"
             id="path148" /></g><g
           id="g150"
           transform="translate(159.8369,103.7295)"><path
             d="M 0,0 C 0,0 19.583,13.98 27.943,10.775 36.303,7.57 40.238,3.47 41.761,0 c 1.524,-3.471 2.62,-14.063 -23.68,-18.812 -26.3,-4.749 -29.953,-1.827 -29.953,-1.827 0,0 -0.295,13.374 11.872,20.639"
             style="fill:#ff8da4;fill-opacity:1;fill-rule:nonzero;stroke:none"
             id="path152" /></g><g
           id="g154"
           transform="translate(191.6309,118.7402)"><path
             d="m 0,0 1.628,1.791 c 0,0 -0.73,3.105 -0.547,5.662 0.182,2.557 1.461,5.114 3.47,4.201 C 6.56,10.74 7.108,8.731 6.56,6.175 c 0,0 12.784,-2.739 16.254,2.556 0,0 0.706,-2.063 0.915,-4.748 v 0 c 0,0 2.921,7.489 -0.915,12.785 C 18.979,22.064 9.299,24.438 1.812,19.69 -5.677,14.941 -4.917,4.418 0,0"
             style="fill:#002db5;fill-opacity:1;fill-rule:nonzero;stroke:none"
             id="path156" /></g><g
           id="g158"
           transform="translate(214.4453,127.4717)"><path
             d="m 0,0 c 0,0 2.192,-6.392 0,-11.323 -2.191,-4.932 -8.219,-7.489 -17.898,-3.653 0,0 -0.731,-1.827 -1.096,-4.201 -0.365,-2.374 -7.854,-2.556 -7.671,6.21 l 5.479,6.027 c 0,0 -0.731,3.105 -0.548,5.662 0.183,2.556 1.461,5.114 3.47,4.201 2.009,-0.914 2.557,-2.923 2.009,-5.48 0,0 12.785,-2.739 16.255,2.557"
             style="fill:#f9d4d1;fill-opacity:1;fill-rule:nonzero;stroke:none"
             id="path160" /></g><g
           id="g162"
           transform="translate(204.583,141.2607)"><path
             d="m 0,0 c 0,-3.278 -2.658,-5.936 -5.936,-5.936 -3.278,0 -5.936,2.658 -5.936,5.936 0,3.278 2.658,5.936 5.936,5.936 C -2.658,5.936 0,3.278 0,0"
             style="fill:#002db5;fill-opacity:1;fill-rule:nonzero;stroke:none"
             id="path164" /></g><g
           id="g166"
           transform="translate(175.1099,106.8975)"><path
             d="m 0,0 c 0,0 3.624,-4.173 12.667,-5.132 0,0 -0.271,4.794 -2.325,8.219 C 8.287,6.512 2.671,5.679 0,0"
             style="fill:#ff7f99;fill-opacity:1;fill-rule:nonzero;stroke:none"
             id="path168" /></g><g
           id="g170"
           transform="translate(201.5981,103.7295)"><path
             d="m 0,0 c 0,0 2.346,-4.292 2.346,-6.347 v -2.054 h -3.378 c 0,0 2.248,4.063 1.032,8.401"
             style="fill:#ff7f99;fill-opacity:1;fill-rule:nonzero;stroke:none"
             id="path172" /></g><g
           id="g174"
           transform="translate(175.8848,106.1758)"><path
             d="m 0,0 c 0,0 1.896,-18.656 6.143,-23.176 2.191,-1.643 26.162,-0.799 26.162,-0.799 v 4.497 l -18.903,3.973 -2.333,11.193 c 0,0 -6.527,0.915 -11.069,4.312"
             style="fill:#f9d4d1;fill-opacity:1;fill-rule:nonzero;stroke:none"
             id="path176" /></g><g
           id="g178"
           transform="translate(212.4683,88.4902)"><path
             d="m 0,0 9.223,10.102 h 7.096 L 8.16,0 Z"
             style="fill:#222222;fill-opacity:1;fill-rule:nonzero;stroke:none"
             id="path180" /></g><g
           id="g182"
           transform="translate(203.2588,95.3281)"><path
             d="m 0,0 0.685,-5.205 19.04,-4.384 v -2.877 H -7.191 L -8.547,-5.025 -2.693,0 Z"
             style="fill:#f9d4d1;fill-opacity:1;fill-rule:nonzero;stroke:none"
             id="path184" /></g><g
           id="g186"
           transform="translate(208.1899,86.0137)"><path
             d="m 0,0 c 0,0 2.74,3.013 5.068,3.835 2.329,0.822 3.166,-0.753 3.166,-0.753 0,0 4.094,3.767 5.464,3.63 C 15.068,6.574 21.917,-3.24 0,-3.813 Z"
             style="fill:#f9d4d1;fill-opacity:1;fill-rule:nonzero;stroke:none"
             id="path188" /></g><g
           id="g190"
           transform="translate(222.9834,85.1914)"><path
             d="m 0,0 c 0,0 3.562,1.877 5.753,2.273 2.192,0.398 6.575,-3.505 5.753,-4.602 H 0 Z"
             style="fill:#f9d4d1;fill-opacity:1;fill-rule:nonzero;stroke:none"
             id="path192" /></g><g
           id="g194"
           transform="translate(147.9653,83.0908)"><path
             d="m 0,0 h -47.303 l -13.881,47.492 4.384,1.09 18.081,-31.049 35.614,1.142 c 0,0 8.716,4.133 13.947,1.313 C 10.842,19.988 0.91,14.201 0,0"
             style="fill:#2467a1;fill-opacity:1;fill-rule:nonzero;stroke:none"
             id="path196" /></g><g
           id="g198"
           transform="translate(126.0488,136.7861)"><path
             d="m 0,0 -20.036,-30.61 3.233,-5.552 10.965,0.351 L 4.383,0 Z"
             style="fill:#135d8c;fill-opacity:1;fill-rule:nonzero;stroke:none"
             id="path200" /></g><g
           id="g202"
           transform="translate(91.165,131.6729)"><path
             d="M 0,0 -1.826,5.113 -16.437,3.652 -4.383,-1.09 Z"
             style="fill:#222222;fill-opacity:1;fill-rule:nonzero;stroke:none"
             id="path204" /></g><g
           id="g206"
           transform="translate(130.4321,136.7861)"><path
             d="M 0,0 0.913,5.662 -11.435,10.952 -4.383,0 Z"
             style="fill:#222222;fill-opacity:1;fill-rule:nonzero;stroke:none"
             id="path208" /></g><g
           id="g210"
           transform="translate(113.2344,297.8721)"><path
             d="m 0,0 c 0,-1.994 -1.616,-3.611 -3.61,-3.611 -1.994,0 -3.611,1.617 -3.611,3.611 0,1.994 1.617,3.61 3.611,3.61 C -1.616,3.61 0,1.994 0,0 Z"
             style="fill:none;stroke:#002db5;stroke-width:1;stroke-linecap:butt;stroke-linejoin:miter;stroke-miterlimit:10;stroke-dasharray:none;stroke-opacity:1"
             id="path212" /></g><g
           id="g214"
           transform="translate(402,169.1104)"><path
             d="m 0,0 c 0,-1.994 -1.616,-3.61 -3.61,-3.61 -1.994,0 -3.612,1.616 -3.612,3.61 0,1.994 1.618,3.611 3.612,3.611 C -1.616,3.611 0,1.994 0,0 Z"
             style="fill:none;stroke:#002db5;stroke-width:1;stroke-linecap:butt;stroke-linejoin:miter;stroke-miterlimit:10;stroke-dasharray:none;stroke-opacity:1"
             id="path216" /></g><g
           id="g218"
           transform="translate(64.1108,193.6104)"><path
             d="m 0,0 c 0,-1.994 -1.617,-3.61 -3.611,-3.61 -1.994,0 -3.611,1.616 -3.611,3.61 0,1.994 1.617,3.611 3.611,3.611 C -1.617,3.611 0,1.994 0,0 Z"
             style="fill:none;stroke:#002db5;stroke-width:1;stroke-linecap:butt;stroke-linejoin:miter;stroke-miterlimit:10;stroke-dasharray:none;stroke-opacity:1"
             id="path220" /></g><g
           id="g222"
           transform="translate(231.4233,370.1108)"><path
             d="m 0,0 c 0,-1.994 -1.616,-3.611 -3.61,-3.611 -1.994,0 -3.611,1.617 -3.611,3.611 0,1.994 1.617,3.61 3.611,3.61 C -1.616,3.61 0,1.994 0,0 Z"
             style="fill:none;stroke:#002db5;stroke-width:1;stroke-linecap:butt;stroke-linejoin:miter;stroke-miterlimit:10;stroke-dasharray:none;stroke-opacity:1"
             id="path224" /></g><g
           id="g226"
           transform="translate(138.5664,406.1108)"><path
             d="m 0,0 c 0,-1.994 -1.616,-3.611 -3.61,-3.611 -1.994,0 -3.611,1.617 -3.611,3.611 0,1.994 1.617,3.61 3.611,3.61 C -1.616,3.61 0,1.994 0,0 Z"
             style="fill:none;stroke:#002db5;stroke-width:1;stroke-linecap:butt;stroke-linejoin:miter;stroke-miterlimit:10;stroke-dasharray:none;stroke-opacity:1"
             id="path228" /></g><g
           id="g230"
           transform="translate(426.4619,377.332)"><path
             d="m 0,0 c 0,-1.994 -1.616,-3.611 -3.61,-3.611 -1.994,0 -3.612,1.617 -3.612,3.611 0,1.994 1.618,3.61 3.612,3.61 C -1.616,3.61 0,1.994 0,0 Z"
             style="fill:none;stroke:#002db5;stroke-width:1;stroke-linecap:butt;stroke-linejoin:miter;stroke-miterlimit:10;stroke-dasharray:none;stroke-opacity:1"
             id="path232" /></g><g
           id="g234"
           transform="translate(468.6104,284.2627)"><path
             d="m 0,0 c 0,-1.994 -1.616,-3.61 -3.61,-3.61 -1.994,0 -3.611,1.616 -3.611,3.61 0,1.994 1.617,3.611 3.611,3.611 C -1.616,3.611 0,1.994 0,0 Z"
             style="fill:none;stroke:#002db5;stroke-width:1;stroke-linecap:butt;stroke-linejoin:miter;stroke-miterlimit:10;stroke-dasharray:none;stroke-opacity:1"
             id="path236" /></g><g
           id="g238"
           transform="translate(143,357.9878)"><path
             d="M 0,0 V -10.988"
             style="fill:none;stroke:#002db5;stroke-width:1;stroke-linecap:butt;stroke-linejoin:miter;stroke-miterlimit:10;stroke-dasharray:none;stroke-opacity:1"
             id="path240" /></g><g
           id="g242"
           transform="translate(137.5059,352.4941)"><path
             d="M 0,0 H 10.988"
             style="fill:none;stroke:#002db5;stroke-width:1;stroke-linecap:butt;stroke-linejoin:miter;stroke-miterlimit:10;stroke-dasharray:none;stroke-opacity:1"
             id="path244" /></g><g
           id="g246"
           transform="translate(461.3896,178.2148)"><path
             d="M 0,0 V -10.987"
             style="fill:none;stroke:#002db5;stroke-width:1;stroke-linecap:butt;stroke-linejoin:miter;stroke-miterlimit:10;stroke-dasharray:none;stroke-opacity:1"
             id="path248" /></g><g
           id="g250"
           transform="translate(455.8955,172.7217)"><path
             d="M 0,0 H 10.988"
             style="fill:none;stroke:#002db5;stroke-width:1;stroke-linecap:butt;stroke-linejoin:miter;stroke-miterlimit:10;stroke-dasharray:none;stroke-opacity:1"
             id="path252" /></g><g
           id="g254"
           transform="translate(413.7471,297.2017)"><path
             d="M 0,0 V -10.988"
             style="fill:none;stroke:#002db5;stroke-width:1;stroke-linecap:butt;stroke-linejoin:miter;stroke-miterlimit:10;stroke-dasharray:none;stroke-opacity:1"
             id="path256" /></g><g
           id="g258"
           transform="translate(408.2529,291.708)"><path
             d="M 0,0 H 10.987"
             style="fill:none;stroke:#002db5;stroke-width:1;stroke-linecap:butt;stroke-linejoin:miter;stroke-miterlimit:10;stroke-dasharray:none;stroke-opacity:1"
             id="path260" /></g><g
           id="g262"
           transform="translate(342.2646,386.4365)"><path
             d="M 0,0 V -10.988"
             style="fill:none;stroke:#002db5;stroke-width:1;stroke-linecap:butt;stroke-linejoin:miter;stroke-miterlimit:10;stroke-dasharray:none;stroke-opacity:1"
             id="path264" /></g><g
           id="g266"
           transform="translate(336.7705,380.9424)"><path
             d="M 0,0 H 10.987"
             style="fill:none;stroke:#002db5;stroke-width:1;stroke-linecap:butt;stroke-linejoin:miter;stroke-miterlimit:10;stroke-dasharray:none;stroke-opacity:1"
             id="path268" /></g><g
           id="g270"
           transform="translate(40.4941,290.6289)"><path
             d="M 0,0 V -10.988"
             style="fill:none;stroke:#002db5;stroke-width:1;stroke-linecap:butt;stroke-linejoin:miter;stroke-miterlimit:10;stroke-dasharray:none;stroke-opacity:1"
             id="path272" /></g><g
           id="g274"
           transform="translate(35,285.1353)"><path
             d="M 0,0 H 10.988"
             style="fill:none;stroke:#002db5;stroke-width:1;stroke-linecap:butt;stroke-linejoin:miter;stroke-miterlimit:10;stroke-dasharray:none;stroke-opacity:1"
             id="path276" /></g></g></g><g
       id="g278"><g
         id="g280"
         clip-path="url(#clipPath284)"><g
           id="g286"
           transform="translate(260.1045,34.5342)"><path
             d="m 0,0 c -0.433,-0.442 -0.804,-0.931 -1.108,-1.453 l -0.466,0.241 c -0.067,0.298 -0.349,0.503 -0.658,0.467 -0.331,-0.039 -0.569,-0.339 -0.53,-0.67 0.039,-0.331 0.339,-0.568 0.67,-0.529 0.066,0.007 0.127,0.026 0.184,0.052 l 0.451,-0.234 C -1.708,-2.68 -1.89,-3.265 -1.996,-3.87 l 0.746,-0.131 c 0.23,1.306 0.85,2.506 1.792,3.472 z"
             style="fill:#112129;fill-opacity:1;fill-rule:nonzero;stroke:none"
             id="path288" /></g><g
           id="g290"
           transform="translate(265.5918,36.8369)"><path
             d="m 0,0 c -0.171,0 -0.341,-0.007 -0.51,-0.018 l -0.073,0.626 c 0.187,0.15 0.296,0.39 0.266,0.645 C -0.363,1.646 -0.72,1.928 -1.113,1.882 -1.506,1.835 -1.787,1.479 -1.741,1.086 -1.711,0.832 -1.552,0.625 -1.336,0.522 l 0.073,-0.624 c -0.714,-0.116 -1.403,-0.332 -2.059,-0.646 l 0.327,-0.684 c 0.933,0.448 1.941,0.673 2.995,0.673 0.496,0 0.993,-0.053 1.475,-0.157 l 0.161,0.741 C 1.101,-0.06 0.551,0 0,0"
             style="fill:#112129;fill-opacity:1;fill-rule:nonzero;stroke:none"
             id="path292" /></g><g
           id="g294"
           transform="translate(272.1943,34.2891)"><path
             d="M 0,0 C 0.331,0.041 0.566,0.342 0.525,0.673 0.485,1.004 0.184,1.238 -0.146,1.198 -0.456,1.16 -0.682,0.895 -0.677,0.59 L -1.093,0.227 c -0.418,0.429 -0.889,0.812 -1.408,1.138 l -0.403,-0.64 c 1.133,-0.715 2.02,-1.727 2.563,-2.926 l 0.691,0.312 c -0.251,0.555 -0.568,1.073 -0.943,1.545 L -0.19,0.008 C -0.13,-0.005 -0.065,-0.008 0,0"
             style="fill:#112129;fill-opacity:1;fill-rule:nonzero;stroke:none"
             id="path296" /></g><g
           id="g298"
           transform="translate(265.0439,26.6279)"><path
             d="m 0,0 c -0.386,-0.023 -0.774,-0.034 -1.157,-0.034 -0.88,0 -1.733,0.06 -2.478,0.179 -0.39,0.062 -0.846,0.155 -1.27,0.292 1.046,-1.861 3.069,-3.125 5.388,-3.125 2.856,0 5.262,1.916 5.95,4.503 C 5.751,1.366 4.927,0.99 3.974,0.692 2.795,0.325 1.42,0.086 0,0"
             style="fill:#112129;fill-opacity:1;fill-rule:nonzero;stroke:none"
             id="path300" /></g><g
           id="g302"
           transform="translate(268.1699,29.7139)"><path
             d="M 0,0 C -0.75,0 -1.36,0.61 -1.36,1.36 -1.36,2.11 -0.75,2.721 0,2.721 0.75,2.721 1.36,2.11 1.36,1.36 1.36,0.61 0.75,0 0,0 m -4.737,-0.908 c -1.021,0 -1.85,0.83 -1.85,1.849 0,1.021 0.829,1.85 1.85,1.85 1.019,0 1.849,-0.829 1.849,-1.85 0,-1.019 -0.83,-1.849 -1.849,-1.849 m 2.159,6.514 c -3.353,0 -6.079,-2.666 -6.079,-5.943 0,-0.426 0.046,-0.849 0.136,-1.262 0.674,-0.482 2.707,-0.889 5.348,-0.73 2.879,0.173 5.297,0.957 6.672,2.158 C 3.494,0.024 3.479,0.22 3.454,0.411 3.074,3.373 0.48,5.606 -2.578,5.606"
             style="fill:#112129;fill-opacity:1;fill-rule:nonzero;stroke:none"
             id="path304" /></g><g
           id="g306"
           transform="translate(281.5957,33.4531)"><path
             d="M 0,0 C -0.295,0.116 -0.806,0.309 -1.383,0.237 -1.934,0.169 -2.227,-0.103 -2.227,-0.77 v -0.865 h 2.228 v -1.718 h -2.228 v -5.454 h -1.931 v 5.454 h -1.34 v 1.718 h 1.34 v 0.888 c 0,1.681 0.895,2.783 2.568,2.783 0.643,0 1.157,-0.122 1.59,-0.308 z"
             style="fill:#112129;fill-opacity:1;fill-rule:nonzero;stroke:none"
             id="path308" /></g><g
           id="g310"
           transform="translate(286.2979,30.1211)"><path
             d="m 0,0 c -0.177,0.03 -0.357,0.047 -0.526,0.047 -0.896,0 -1.51,-0.548 -1.51,-1.614 v -3.908 h -1.932 v 7.172 h 1.873 V 0.912 c 0.451,0.674 1.14,0.978 2.021,0.978 0.414,0 0.847,-0.128 1.094,-0.337 z"
             style="fill:#112129;fill-opacity:1;fill-rule:nonzero;stroke:none"
             id="path312" /></g><g
           id="g314"
           transform="translate(288.8506,28.9092)"><path
             d="M 0,0 H 3.176 C 2.998,0.918 2.442,1.436 1.613,1.436 0.703,1.436 0.171,0.889 0,0 m 5.114,-0.666 c 0,-0.222 -0.014,-0.488 -0.037,-0.651 h -5.084 c 0.207,-1.037 0.933,-1.488 1.843,-1.488 0.621,0 1.295,0.251 1.813,0.688 L 4.781,-3.36 c -0.813,-0.747 -1.85,-1.088 -3.056,-1.088 -2.199,0 -3.723,1.495 -3.723,3.753 0,2.257 1.48,3.797 3.626,3.797 2.065,0 3.479,-1.533 3.486,-3.768"
             style="fill:#112129;fill-opacity:1;fill-rule:nonzero;stroke:none"
             id="path316" /></g><g
           id="g318"
           transform="translate(296.5039,28.9092)"><path
             d="M 0,0 H 3.176 C 2.998,0.918 2.442,1.436 1.613,1.436 0.703,1.436 0.17,0.889 0,0 m 5.114,-0.666 c 0,-0.222 -0.014,-0.488 -0.037,-0.651 h -5.084 c 0.207,-1.037 0.932,-1.488 1.843,-1.488 0.621,0 1.295,0.251 1.813,0.688 L 4.781,-3.36 c -0.814,-0.747 -1.85,-1.088 -3.056,-1.088 -2.199,0 -3.723,1.495 -3.723,3.753 0,2.257 1.48,3.797 3.626,3.797 2.065,0 3.479,-1.533 3.486,-3.768"
             style="fill:#112129;fill-opacity:1;fill-rule:nonzero;stroke:none"
             id="path320" /></g><g
           id="g322"
           transform="translate(304.2871,28.2354)"><path
             d="m 0,0 c 0,-1.132 0.748,-1.976 1.843,-1.976 1.139,0 1.85,0.881 1.85,1.976 0,1.096 -0.711,1.977 -1.85,1.977 C 0.748,1.977 0,1.133 0,0 m 5.677,0 c 0,-2.153 -1.495,-3.774 -3.471,-3.774 -0.963,0 -1.644,0.378 -2.109,0.932 V -6.55 H -1.828 V 3.583 H 0.06 V 2.791 C 0.525,3.375 1.214,3.775 2.198,3.775 4.182,3.775 5.677,2.154 5.677,0"
             style="fill:#112129;fill-opacity:1;fill-rule:nonzero;stroke:none"
             id="path324" /></g><path
           d="m 312.809,24.646 h -1.932 v 7.172 h 1.932 z m 0.258,9.518 c 0,-0.695 -0.54,-1.228 -1.235,-1.228 -0.696,0 -1.229,0.533 -1.229,1.228 0,0.696 0.533,1.243 1.229,1.243 0.695,0 1.235,-0.547 1.235,-1.243"
           style="fill:#112129;fill-opacity:1;fill-rule:nonzero;stroke:none"
           id="path326" /><g
           id="g328"
           transform="translate(316.0322,29.2646)"><path
             d="M 0,0 2.701,2.554 H 5.07 L 1.591,-0.821 5.092,-4.618 H 2.716 L 0,-1.717 V -4.618 H -1.932 V 6.039 H 0 Z"
             style="fill:#112129;fill-opacity:1;fill-rule:nonzero;stroke:none"
             id="path330" /></g><g
           id="g332"
           transform="translate(184.4126,26.6299)"><path
             d="m 0,0 v 3.208 c -0.396,0.615 -1.245,1.143 -2.124,1.143 -1.421,0 -2.271,-1.172 -2.271,-2.74 0,-1.567 0.85,-2.724 2.271,-2.724 0.879,0 1.728,0.498 2.124,1.113 m 0,-1.919 v 1.055 c -0.527,-0.718 -1.392,-1.231 -2.388,-1.231 -1.845,0 -3.149,1.407 -3.149,3.706 0,2.256 1.289,3.721 3.149,3.721 0.952,0 1.817,-0.469 2.388,-1.245 v 3.765 h 1.099 v -9.771 z"
             style="fill:#112129;fill-opacity:1;fill-rule:nonzero;stroke:none"
             id="path334" /></g><g
           id="g336"
           transform="translate(190.4033,31.0537)"><path
             d="M 0,0 C -1.509,0 -2.256,-1.274 -2.314,-2.358 H 2.329 C 2.314,-1.304 1.611,0 0,0 m -3.471,-2.798 c 0,2.051 1.464,3.706 3.486,3.706 2.138,0 3.398,-1.67 3.398,-3.794 v -0.278 h -5.727 c 0.087,-1.333 1.025,-2.446 2.548,-2.446 0.806,0 1.626,0.322 2.183,0.893 L 2.944,-5.435 C 2.241,-6.138 1.289,-6.519 0.132,-6.519 c -2.095,0 -3.603,1.509 -3.603,3.721"
             style="fill:#112129;fill-opacity:1;fill-rule:nonzero;stroke:none"
             id="path338" /></g><g
           id="g340"
           transform="translate(194.6069,25.6484)"><path
             d="M 0,0 0.571,0.791 C 1.04,0.249 1.934,-0.22 2.9,-0.22 c 1.084,0 1.67,0.513 1.67,1.216 0,1.714 -4.38,0.659 -4.38,3.281 0,1.099 0.953,2.036 2.637,2.036 1.201,0 2.051,-0.454 2.622,-1.025 L 4.936,4.526 C 4.512,5.039 3.735,5.42 2.827,5.42 1.86,5.42 1.26,4.937 1.26,4.307 1.26,2.754 5.639,3.779 5.639,1.025 5.639,-0.161 4.687,-1.113 2.856,-1.113 1.699,-1.113 0.718,-0.762 0,0"
             style="fill:#112129;fill-opacity:1;fill-rule:nonzero;stroke:none"
             id="path342" /></g><path
           d="m 201.667,31.786 h 1.099 v -7.075 h -1.099 z m -0.19,1.743 c 0,0.41 0.337,0.747 0.732,0.747 0.411,0 0.747,-0.337 0.747,-0.747 0,-0.41 -0.336,-0.732 -0.747,-0.732 -0.395,0 -0.732,0.322 -0.732,0.732"
           style="fill:#112129;fill-opacity:1;fill-rule:nonzero;stroke:none"
           id="path344" /><g
           id="g346"
           transform="translate(209.7085,26.7471)"><path
             d="m 0,0 v 3.091 c -0.381,0.615 -1.23,1.142 -2.109,1.142 -1.421,0 -2.27,-1.128 -2.27,-2.695 0,-1.553 0.849,-2.695 2.27,-2.695 0.879,0 1.728,0.542 2.109,1.157 m -5.126,-3.853 0.556,0.821 c 0.586,-0.703 1.289,-0.967 2.3,-0.967 1.172,0 2.27,0.571 2.27,2.124 v 1.011 c -0.512,-0.718 -1.376,-1.26 -2.373,-1.26 -1.845,0 -3.149,1.377 -3.149,3.662 0,2.271 1.289,3.677 3.149,3.677 0.952,0 1.802,-0.469 2.373,-1.245 v 1.069 h 1.099 v -6.87 c 0,-2.344 -1.641,-3.076 -3.369,-3.076 -1.201,0 -2.022,0.234 -2.856,1.054"
             style="fill:#112129;fill-opacity:1;fill-rule:nonzero;stroke:none"
             id="path348" /></g><g
           id="g350"
           transform="translate(217.4131,24.7109)"><path
             d="M 0,0 V 4.629 C 0,5.874 -0.629,6.27 -1.582,6.27 -2.446,6.27 -3.267,5.742 -3.676,5.171 V 0 h -1.099 v 7.075 h 1.099 V 6.05 c 0.498,0.586 1.464,1.201 2.519,1.201 1.479,0 2.256,-0.747 2.256,-2.285 L 1.099,0 Z"
             style="fill:#112129;fill-opacity:1;fill-rule:nonzero;stroke:none"
             id="path352" /></g><g
           id="g354"
           transform="translate(223.4043,31.0537)"><path
             d="M 0,0 C -1.509,0 -2.256,-1.274 -2.314,-2.358 H 2.329 C 2.314,-1.304 1.611,0 0,0 m -3.472,-2.798 c 0,2.051 1.465,3.706 3.487,3.706 2.138,0 3.398,-1.67 3.398,-3.794 v -0.278 h -5.727 c 0.087,-1.333 1.025,-2.446 2.548,-2.446 0.806,0 1.626,0.322 2.183,0.893 L 2.944,-5.435 C 2.241,-6.138 1.289,-6.519 0.132,-6.519 c -2.095,0 -3.604,1.509 -3.604,3.721"
             style="fill:#112129;fill-opacity:1;fill-rule:nonzero;stroke:none"
             id="path356" /></g><g
           id="g358"
           transform="translate(233.3501,26.6299)"><path
             d="m 0,0 v 3.208 c -0.396,0.615 -1.245,1.143 -2.124,1.143 -1.421,0 -2.271,-1.172 -2.271,-2.74 0,-1.567 0.85,-2.724 2.271,-2.724 0.879,0 1.728,0.498 2.124,1.113 m 0,-1.919 v 1.055 c -0.527,-0.718 -1.392,-1.231 -2.388,-1.231 -1.845,0 -3.149,1.407 -3.149,3.706 0,2.256 1.289,3.721 3.149,3.721 0.952,0 1.817,-0.469 2.388,-1.245 v 3.765 h 1.099 v -9.771 z"
             style="fill:#112129;fill-opacity:1;fill-rule:nonzero;stroke:none"
             id="path360" /></g><g
           id="g362"
           transform="translate(242.8999,25.5166)"><path
             d="M 0,0 C 1.436,0 2.285,1.157 2.285,2.725 2.285,4.292 1.436,5.464 0,5.464 -0.864,5.464 -1.729,4.937 -2.109,4.321 V 1.113 C -1.729,0.498 -0.864,0 0,0 m -3.208,-0.806 v 9.771 h 1.099 V 5.2 c 0.571,0.777 1.421,1.245 2.387,1.245 1.846,0 3.15,-1.465 3.15,-3.72 0,-2.3 -1.304,-3.706 -3.15,-3.706 -0.996,0 -1.86,0.512 -2.387,1.23 v -1.055 z"
             style="fill:#112129;fill-opacity:1;fill-rule:nonzero;stroke:none"
             id="path364" /></g><g
           id="g366"
           transform="translate(247.5283,22.9385)"><path
             d="m 0,0 c 0.161,-0.073 0.425,-0.117 0.601,-0.117 0.483,0 0.805,0.161 1.055,0.747 l 0.469,1.069 -2.96,7.149 H 0.352 L 2.71,3.047 5.054,8.848 H 6.255 L 2.71,0.337 C 2.285,-0.688 1.567,-1.084 0.63,-1.099 c -0.234,0 -0.601,0.044 -0.805,0.103 z"
             style="fill:#112129;fill-opacity:1;fill-rule:nonzero;stroke:none"
             id="path368" /></g></g></g></g></svg>
